PathFileType   4   (X/Y/Z)
DataRate	CameraRate	NumFrames	NumMarkers	Units	OrigDataRate	OrigDataStartFrame	OrigNumFrames
120.0	120.0	12	37	mm	120.0	14	105
Frame#	Time	midhip	hip_r	hip_l	knee_r	knee_l	ankle_r	ankle_l	midasis	asis_r	asis_l	psis_r	psis_l	epicondLat_r	epicondLat_l	epicondMed_r	epicondMed_l	malleolusLat_r	malleolusLat_l	malleolusMedv_r	malleolusMedv_l	neck	subclavicle_r	subclavicle_l	sternalnotch	xyphoidprocess	thighwand_r	thighwand_l	upperleg1_r	upperleg1_l	upperleg2_r	upperleg2_l	shankwand_r	shankwand_l	lowerleg1_r	lowerleg1_l	toe_r	toe_l
 	 	X1	Y1	Z1	X2	Y2	Z2	X3	Y3	Z3	X4	Y4	Z4	X5	Y5	Z5	X6	Y6	Z6	X7	Y7	Z7	X8	Y8	Z8	X9	Y9	Z9	X10	Y10	Z10	X11	Y11	Z11	X12	Y12	Z12	X13	Y13	Z13	X14	Y14	Z14	X15	Y15	Z15	X16	Y16	Z16	X17	Y17	Z17	X18	Y18	Z18	X19	Y19	Z19	X20	Y20	Z20	X21	Y21	Z21	X22	Y22	Z22	X23	Y23	Z23	X24	Y24	Z24	X25	Y25	Z25	X26	Y26	Z26	X27	Y27	Z27	X28	Y28	Z28	X29	Y29	Z29	X30	Y30	Z30	X31	Y31	Z31	X32	Y32	Z32	X33	Y33	Z33	X34	Y34	Z34	X35	Y35	Z35	X36	Y36	Z36	X37	Y37	Z37

	14	0.21667	635.193	736.876	-212.259	624.410	738.378	-151.394	614.122	727.595	-280.855	690.971	402.890	-192.137	685.271	408.673	-302.870	661.416	65.530	-219.513	422.388	191.393	-316.953	692.959	797.301	-227.338	700.868	805.590	-127.823	685.050	789.012	-326.852	540.021	849.848	-185.857	535.233	843.198	-240.556	697.090	397.498	-137.745	679.089	411.028	-356.967	686.210	408.309	-232.734	700.552	372.300	-257.966	656.300	62.971	-182.452	420.163	196.457	-353.538	664.640	68.595	-244.137	424.037	189.225	-287.115	558.776	1207.494	-237.705	671.158	1156.269	-192.133	675.695	1159.075	-268.006	658.972	1155.331	-232.419	693.522	1075.563	-230.891	783.851	529.814	-78.149	806.645	552.206	-317.493	694.494	573.187	-95.885	721.025	593.484	-344.223	707.465	492.566	-119.347	731.658	507.205	-343.577	657.835	165.248	-97.213	527.173	258.894	-424.557	654.399	137.356	-175.848	485.738	245.451	-352.451	756.751	36.000	-198.744	432.689	83.805	-324.383
	15	0.22500	644.840	738.326	-212.031	633.915	739.991	-150.691	624.516	729.861	-280.271	693.791	403.342	-191.749	705.287	412.798	-302.470	661.787	65.517	-219.326	449.236	188.840	-316.651	703.144	799.110	-225.861	710.366	806.892	-126.308	695.923	791.327	-325.414	550.375	851.805	-185.227	545.591	845.399	-240.027	698.990	397.625	-137.295	700.119	415.276	-356.668	690.065	409.485	-232.760	720.033	376.868	-258.652	656.189	63.027	-182.329	446.980	193.737	-353.256	664.734	68.767	-243.962	451.186	186.759	-286.831	570.103	1209.583	-237.239	682.786	1158.193	-191.971	683.780	1160.745	-267.789	668.720	1157.214	-231.543	702.805	1077.232	-231.381	787.561	527.642	-76.090	822.327	560.529	-313.852	699.170	573.508	-94.766	736.361	599.144	-342.871	711.068	492.565	-118.576	749.565	513.292	-342.449	657.489	165.523	-96.993	552.387	258.867	-424.240	654.480	137.625	-175.681	511.232	244.673	-352.255	756.746	35.971	-198.573	465.231	82.539	-324.382
	16	0.23333	654.334	739.512	-211.634	643.682	741.431	-149.902	635.182	731.954	-279.594	696.497	403.807	-191.459	724.808	416.905	-302.082	662.123	65.535	-219.202	476.496	185.439	-316.287	713.562	800.773	-224.289	720.084	808.045	-124.772	707.041	793.501	-323.805	560.692	853.621	-184.589	555.971	847.446	-239.470	700.900	397.788	-136.967	720.614	419.586	-356.354	693.380	411.140	-233.212	738.995	381.848	-258.660	656.131	63.114	-182.263	474.130	190.224	-352.900	664.952	68.898	-243.787	478.617	183.659	-286.495	581.358	1211.525	-236.815	694.379	1160.128	-191.610	695.463	1162.595	-267.464	680.362	1159.093	-231.215	714.508	1079.137	-230.921	791.373	525.521	-74.426	837.355	568.551	-310.231	704.217	573.863	-93.838	751.005	604.894	-341.625	714.642	492.891	-118.104	766.791	519.428	-341.110	657.349	165.823	-96.840	577.529	258.584	-423.894	654.659	137.898	-175.529	536.709	243.467	-352.034	756.768	35.949	-198.435	498.382	80.858	-324.250
	17	0.24167	664.039	740.921	-210.318	653.573	742.642	-149.122	646.055	733.849	-278.923	699.076	404.239	-191.242	743.816	420.951	-301.739	662.428	65.589	-219.140	504.158	181.284	-315.850	724.121	802.250	-222.662	729.878	808.983	-123.259	718.364	795.516	-322.064	570.593	855.348	-183.905	566.383	849.306	-238.910	702.861	397.964	-136.733	740.533	423.886	-356.061	699.000	411.869	-233.447	757.898	386.573	-258.961	656.124	63.232	-182.248	501.610	185.988	-352.461	665.180	69.057	-243.666	506.391	179.868	-286.075	592.654	1213.271	-236.357	703.936	1161.497	-191.591	706.257	1164.105	-267.044	690.553	1160.625	-231.237	724.206	1080.462	-230.566	795.384	523.501	-73.227	851.914	576.194	-306.795	709.469	574.049	-93.217	765.123	610.755	-339.878	719.395	492.790	-117.729	783.498	525.429	-339.672	657.399	166.136	-96.739	602.571	258.002	-423.502	654.893	138.146	-175.216	562.368	241.538	-351.715	756.803	35.930	-198.317	532.109	78.846	-324.031
	18	0.25000	673.703	742.269	-208.323	663.405	743.623	-148.441	657.010	735.557	-278.350	701.532	404.601	-191.098	762.246	424.878	-301.444	662.730	65.676	-219.134	532.232	176.436	-315.336	734.685	803.523	-221.031	739.569	809.683	-121.819	729.802	797.363	-320.243	580.185	856.945	-183.231	576.829	850.965	-238.390	704.895	398.120	-136.584	759.847	428.105	-355.796	704.838	412.819	-233.959	776.257	390.900	-259.304	656.169	63.379	-182.284	529.438	181.069	-351.938	665.341	69.270	-243.653	534.675	175.357	-285.576	603.923	1214.749	-235.952	717.798	1163.210	-190.905	716.822	1165.390	-266.693	702.704	1162.069	-230.071	736.619	1082.014	-230.405	799.634	521.618	-72.486	866.004	583.337	-303.498	714.975	574.259	-92.613	778.939	616.182	-337.784	724.506	492.719	-117.572	799.638	531.102	-338.112	657.578	166.464	-96.690	627.497	257.069	-423.053	655.207	138.347	-174.833	588.268	238.854	-351.345	756.836	35.912	-198.201	566.338	76.577	-323.748
	19	0.25833	683.126	743.367	-205.832	673.166	744.355	-147.915	668.005	737.081	-277.925	703.919	404.874	-191.023	780.085	428.631	-301.169	663.064	65.786	-219.184	560.741	170.946	-314.733	745.228	804.580	-219.456	749.158	810.118	-120.469	741.299	799.042	-318.444	589.519	858.382	-182.598	587.305	852.422	-237.961	707.013	398.232	-136.513	778.558	432.173	-355.532	707.646	414.034	-234.467	793.297	395.630	-258.458	656.266	63.548	-182.373	557.651	175.502	-351.321	665.501	69.469	-243.700	563.434	170.135	-285.005	615.139	1215.991	-235.584	726.611	1164.086	-190.727	730.128	1166.833	-266.186	713.862	1163.259	-230.610	747.658	1083.160	-229.542	804.095	519.875	-72.104	879.745	589.947	-300.315	720.770	574.271	-92.178	792.589	621.251	-336.365	728.620	492.940	-117.511	815.239	536.400	-336.448	657.822	166.802	-96.716	652.316	255.721	-422.543	655.646	138.507	-174.793	614.010	235.807	-350.902	756.867	35.891	-198.085	600.992	74.097	-323.401
	20	0.26667	692.986	744.541	-203.945	682.890	744.850	-147.610	679.067	738.432	-277.711	706.303	405.057	-191.012	797.338	432.165	-300.890	663.450	65.916	-219.289	589.711	164.871	-314.032	755.769	805.441	-218.006	758.672	810.314	-119.231	752.867	800.568	-316.781	598.977	859.530	-182.225	597.804	853.679	-237.667	709.220	398.296	-136.507	796.686	436.027	-355.249	706.481	414.011	-234.086	809.795	398.084	-260.153	656.414	63.739	-182.520	586.290	169.326	-350.603	665.833	69.690	-243.764	592.576	164.264	-284.348	626.453	1217.063	-235.178	739.462	1165.095	-190.117	737.902	1167.144	-265.929	724.050	1163.997	-229.175	757.349	1083.685	-229.624	808.718	518.249	-71.966	893.221	596.028	-297.237	726.413	573.975	-92.139	806.746	625.209	-332.593	731.260	492.194	-117.485	830.205	541.235	-334.658	658.100	167.142	-96.823	677.070	253.897	-421.968	656.195	138.697	-175.144	639.598	232.411	-350.370	756.897	35.860	-197.978	636.018	71.445	-323.009
	21	0.27500	702.971	745.494	-202.707	692.455	745.116	-147.619	690.134	739.633	-277.798	708.738	405.145	-191.065	813.982	435.435	-300.618	663.876	66.065	-219.450	619.153	158.294	-313.236	766.226	806.107	-216.729	767.985	810.260	-118.103	764.467	801.953	-315.355	608.601	860.389	-182.109	608.324	854.740	-237.554	711.536	398.314	-136.562	814.207	439.603	-354.958	705.391	414.063	-233.607	825.285	401.827	-259.381	656.605	63.952	-182.723	615.387	162.605	-349.790	666.428	69.913	-243.892	622.186	157.868	-283.590	637.794	1217.945	-234.783	746.722	1165.540	-190.061	751.619	1168.005	-265.365	734.680	1164.734	-230.120	767.515	1084.252	-228.208	813.483	516.703	-72.002	906.558	601.602	-294.327	732.002	573.735	-92.259	820.263	629.291	-330.603	733.926	491.548	-117.513	844.787	545.648	-332.848	658.437	167.478	-97.006	701.815	251.566	-421.333	656.853	138.920	-175.659	665.198	228.610	-349.760	756.958	35.815	-197.897	671.406	68.681	-322.640
	22	0.28333	712.812	745.919	-202.287	701.846	745.190	-147.917	701.173	740.687	-278.153	711.295	405.141	-191.165	829.975	438.370	-300.355	664.322	66.234	-219.662	649.068	151.315	-312.357	776.577	806.584	-215.622	777.086	809.992	-117.051	776.069	803.176	-314.194	618.522	860.971	-182.247	618.869	855.594	-237.673	714.003	398.284	-136.661	831.071	442.825	-354.661	714.444	414.616	-234.706	841.905	405.487	-258.795	656.833	64.187	-182.974	644.967	155.427	-348.898	667.008	70.050	-244.103	652.357	151.030	-282.736	649.090	1218.635	-234.462	758.382	1166.160	-189.290	762.187	1168.119	-265.041	745.754	1165.130	-229.344	778.369	1084.561	-227.380	818.387	515.185	-72.136	919.760	606.636	-291.584	737.739	573.650	-92.313	833.462	633.097	-329.297	740.628	491.950	-117.788	859.758	549.941	-331.394	658.879	167.803	-97.260	726.609	248.735	-420.649	657.538	139.094	-176.203	691.231	224.208	-348.889	757.103	35.756	-197.864	707.133	65.870	-322.328
	23	0.29167	723.214	746.407	-202.623	710.939	745.094	-148.538	712.198	741.564	-278.800	714.096	405.034	-191.292	845.290	440.914	-300.060	664.782	66.421	-219.905	679.449	144.041	-311.411	786.777	806.854	-214.663	785.824	809.524	-116.108	787.730	804.183	-313.218	628.722	861.297	-182.650	629.452	856.220	-238.039	716.659	398.204	-136.778	847.230	445.609	-354.323	714.122	414.827	-234.333	858.937	408.542	-259.115	657.089	64.445	-183.256	675.041	147.901	-347.945	667.583	70.088	-244.360	683.241	143.844	-281.837	660.442	1219.097	-234.122	769.738	1166.470	-188.736	773.316	1168.411	-264.202	756.988	1165.451	-228.607	789.495	1084.836	-226.731	823.254	513.675	-72.240	932.874	611.091	-289.076	743.657	573.511	-92.421	846.545	636.527	-327.917	743.776	491.311	-117.882	874.747	553.925	-330.250	659.457	168.112	-97.563	751.495	245.447	-419.922	658.204	139.247	-176.696	717.915	219.054	-347.834	757.329	35.687	-197.877	743.135	63.080	-322.063
	24	0.30000	733.426	746.276	-203.788	720.274	744.870	-149.156	723.387	742.197	-279.407	717.181	404.875	-191.414	859.945	442.971	-299.685	665.244	66.626	-220.158	710.293	136.589	-310.429	797.137	806.948	-213.783	794.780	808.971	-115.198	799.493	804.924	-312.368	639.316	861.379	-183.320	640.082	856.615	-238.638	719.508	398.077	-136.885	862.631	447.870	-353.898	723.265	414.932	-235.445	875.031	411.161	-259.632	657.365	64.725	-183.544	705.611	140.156	-346.957	668.065	70.091	-244.668	714.850	136.444	-280.929	671.859	1219.354	-233.663	780.900	1166.502	-188.187	783.165	1167.809	-264.179	767.442	1165.262	-228.046	799.362	1084.415	-226.079	828.119	512.155	-72.221	945.772	614.871	-286.800	749.722	573.222	-92.613	859.501	639.610	-326.659	750.593	491.272	-118.248	889.318	557.300	-329.277	660.180	168.408	-97.886	776.490	241.787	-419.161	659.043	139.440	-177.101	744.669	213.613	-346.894	757.610	35.610	-197.925	779.348	60.389	-321.851
	25	0.30833	742.417	744.894	-205.058	729.767	744.513	-149.804	734.698	742.562	-280.012	720.522	404.671	-191.508	873.948	444.516	-299.200	665.699	66.856	-220.401	741.627	129.083	-309.439	807.602	806.850	-213.003	803.866	808.329	-114.359	811.337	805.372	-311.646	650.001	861.279	-184.203	650.767	856.777	-239.440	722.521	397.922	-136.960	877.244	449.543	-353.368	725.986	414.983	-235.416	891.311	413.234	-260.155	657.651	65.033	-183.820	736.697	132.337	-345.964	668.145	70.230	-245.009	746.675	128.988	-279.990	683.300	1219.477	-233.202	792.115	1166.353	-187.650	797.949	1168.026	-263.352	780.555	1165.238	-228.059	812.730	1084.528	-224.951	832.997	510.618	-72.019	958.581	617.965	-284.898	755.735	572.841	-92.799	872.169	641.999	-325.421	754.868	490.919	-118.298	903.621	560.132	-328.410	661.036	168.703	-98.205	801.591	237.873	-418.381	660.076	139.626	-177.404	771.479	208.084	-346.046	757.927	35.526	-197.995	815.721	57.900	-321.689
